<mxfile host="app.diagrams.net" modified="2022-04-16T05:49:56.329Z" agent="5.0 (X11; Linux x86_64) AppleWebKit/537.36 (KHTML, like Gecko) Chrome/99.0.4844.51 Safari/537.36" etag="NL35tEoFhg7en1w8_9SJ" version="17.4.4" type="github">
  <diagram id="aGHZM9pQvN6M08b_dG1g" name="Page-1">
    <mxGraphModel dx="868" dy="490" grid="1" gridSize="10" guides="1" tooltips="1" connect="1" arrows="1" fold="1" page="1" pageScale="1" pageWidth="850" pageHeight="1100" math="0" shadow="0">
      <root>
        <mxCell id="0" />
        <mxCell id="1" parent="0" />
        <mxCell id="jcHq01SA1jM7gZGn1Hp3-1" value="Risk-taking Behaviours" style="rounded=1;whiteSpace=wrap;html=1;" vertex="1" parent="1">
          <mxGeometry x="500" y="240" width="120" height="60" as="geometry" />
        </mxCell>
        <mxCell id="jcHq01SA1jM7gZGn1Hp3-8" style="edgeStyle=orthogonalEdgeStyle;rounded=0;orthogonalLoop=1;jettySize=auto;html=1;entryX=0;entryY=0.5;entryDx=0;entryDy=0;" edge="1" parent="1" source="jcHq01SA1jM7gZGn1Hp3-2" target="jcHq01SA1jM7gZGn1Hp3-1">
          <mxGeometry relative="1" as="geometry" />
        </mxCell>
        <mxCell id="jcHq01SA1jM7gZGn1Hp3-2" value="Gender" style="rounded=1;whiteSpace=wrap;html=1;" vertex="1" parent="1">
          <mxGeometry x="140" y="200" width="120" height="60" as="geometry" />
        </mxCell>
        <mxCell id="jcHq01SA1jM7gZGn1Hp3-7" style="edgeStyle=orthogonalEdgeStyle;rounded=0;orthogonalLoop=1;jettySize=auto;html=1;entryX=0;entryY=0.5;entryDx=0;entryDy=0;" edge="1" parent="1" source="jcHq01SA1jM7gZGn1Hp3-3" target="jcHq01SA1jM7gZGn1Hp3-1">
          <mxGeometry relative="1" as="geometry" />
        </mxCell>
        <mxCell id="jcHq01SA1jM7gZGn1Hp3-3" value="Neuroticism" style="rounded=1;whiteSpace=wrap;html=1;" vertex="1" parent="1">
          <mxGeometry x="140" y="280" width="120" height="60" as="geometry" />
        </mxCell>
        <mxCell id="jcHq01SA1jM7gZGn1Hp3-9" style="edgeStyle=orthogonalEdgeStyle;rounded=0;orthogonalLoop=1;jettySize=auto;html=1;entryX=0;entryY=0.5;entryDx=0;entryDy=0;" edge="1" parent="1" source="jcHq01SA1jM7gZGn1Hp3-4" target="jcHq01SA1jM7gZGn1Hp3-1">
          <mxGeometry relative="1" as="geometry" />
        </mxCell>
        <mxCell id="jcHq01SA1jM7gZGn1Hp3-4" value="Extroversion" style="rounded=1;whiteSpace=wrap;html=1;" vertex="1" parent="1">
          <mxGeometry x="140" y="120" width="120" height="60" as="geometry" />
        </mxCell>
        <mxCell id="jcHq01SA1jM7gZGn1Hp3-6" style="edgeStyle=orthogonalEdgeStyle;rounded=0;orthogonalLoop=1;jettySize=auto;html=1;entryX=0;entryY=0.5;entryDx=0;entryDy=0;" edge="1" parent="1" source="jcHq01SA1jM7gZGn1Hp3-5" target="jcHq01SA1jM7gZGn1Hp3-1">
          <mxGeometry relative="1" as="geometry" />
        </mxCell>
        <mxCell id="jcHq01SA1jM7gZGn1Hp3-5" value="Self-Efficacy" style="rounded=1;whiteSpace=wrap;html=1;" vertex="1" parent="1">
          <mxGeometry x="140" y="360" width="120" height="60" as="geometry" />
        </mxCell>
        <mxCell id="jcHq01SA1jM7gZGn1Hp3-10" value="Coffee?" style="rounded=1;whiteSpace=wrap;html=1;" vertex="1" parent="1">
          <mxGeometry x="440" y="40" width="120" height="60" as="geometry" />
        </mxCell>
        <mxCell id="jcHq01SA1jM7gZGn1Hp3-11" value="Watching videos?" style="rounded=1;whiteSpace=wrap;html=1;" vertex="1" parent="1">
          <mxGeometry x="610" y="40" width="120" height="60" as="geometry" />
        </mxCell>
        <mxCell id="jcHq01SA1jM7gZGn1Hp3-12" value="Lack of information?" style="rounded=1;whiteSpace=wrap;html=1;" vertex="1" parent="1">
          <mxGeometry x="610" y="130" width="120" height="60" as="geometry" />
        </mxCell>
      </root>
    </mxGraphModel>
  </diagram>
</mxfile>
